<svg width="26" height="26" viewBox="0 0 26 26" fill="none" xmlns="http://www.w3.org/2000/svg">
<path d="M18.5417 7.54175V4.77087C18.5417 4.03599 18.2498 3.33121 17.7302 2.81157C17.2105 2.29193 16.5058 2 15.7709 2H4.68738C3.9525 2 3.24771 2.29193 2.72807 2.81157C2.20843 3.33121 1.9165 4.03599 1.9165 4.77087V15.8544C1.9165 16.5893 2.20843 17.294 2.72807 17.8137C3.24771 18.3333 3.9525 18.6252 4.68738 18.6252H7.45825M7.45825 10.3126C7.45825 9.57774 7.75018 8.87296 8.26982 8.35332C8.78946 7.83368 9.49424 7.54175 10.2291 7.54175H21.3126C22.0475 7.54175 22.7523 7.83368 23.2719 8.35332C23.7916 8.87296 24.0835 9.57774 24.0835 10.3126V21.3961C24.0835 22.131 23.7916 22.8358 23.2719 23.3554C22.7523 23.8751 22.0475 24.167 21.3126 24.167H10.2291C9.49424 24.167 8.78946 23.8751 8.26982 23.3554C7.75018 22.8358 7.45825 22.131 7.45825 21.3961V10.3126Z" stroke="white" stroke-width="2.49379" stroke-linecap="round" stroke-linejoin="round"/>
</svg>
