<svg width="7" height="23" viewBox="0 0 7 23" fill="none" xmlns="http://www.w3.org/2000/svg">
<path d="M3.0628 13.7843C3.8752 13.7843 4.65433 13.4938 5.22879 12.9768C5.80325 12.4598 6.12598 11.7586 6.12598 11.0274C6.12598 10.2963 5.80325 9.59506 5.22879 9.07805C4.65433 8.56104 3.8752 8.27058 3.0628 8.27058C2.25039 8.27058 1.47126 8.56104 0.896805 9.07805C0.322348 9.59506 -0.000379562 10.2963 -0.000379562 11.0274C-0.000379562 11.7586 0.322348 12.4598 0.896805 12.9768C1.47126 13.4938 2.25039 13.7843 3.0628 13.7843ZM3.0628 5.51372C3.8752 5.51372 4.65433 5.22327 5.22879 4.70626C5.80325 4.18924 6.12598 3.48803 6.12598 2.75686C6.12598 2.0257 5.80325 1.32448 5.22879 0.807466C4.65433 0.290454 3.8752 0 3.0628 0C2.25039 0 1.47126 0.290454 0.896805 0.807466C0.322348 1.32448 -0.000379562 2.0257 -0.000379562 2.75686C-0.000379562 3.48803 0.322348 4.18924 0.896805 4.70626C1.47126 5.22327 2.25039 5.51372 3.0628 5.51372ZM3.0628 22.0549C3.8752 22.0549 4.65433 21.7644 5.22879 21.2474C5.80325 20.7304 6.12598 20.0292 6.12598 19.298C6.12598 18.5669 5.80325 17.8656 5.22879 17.3486C4.65433 16.8316 3.8752 16.5412 3.0628 16.5412C2.25039 16.5412 1.47126 16.8316 0.896805 17.3486C0.322348 17.8656 -0.000379562 18.5669 -0.000379562 19.298C-0.000379562 20.0292 0.322348 20.7304 0.896805 21.2474C1.47126 21.7644 2.25039 22.0549 3.0628 22.0549Z" fill="white"/>
</svg>
