<svg width="27" height="27" viewBox="0 0 27 27" fill="none" xmlns="http://www.w3.org/2000/svg">
<path d="M19.5676 7.43241V4.39861C19.5676 3.594 19.248 2.82234 18.679 2.25339C18.1101 1.68444 17.3384 1.36481 16.5338 1.36481H4.39861C3.594 1.36481 2.82234 1.68444 2.25339 2.25339C1.68444 2.82234 1.36481 3.594 1.36481 4.39861V16.5338C1.36481 17.3384 1.68444 18.1101 2.25339 18.679C2.82234 19.248 3.594 19.5676 4.39861 19.5676H7.43241M7.43241 10.4662C7.43241 9.66159 7.75204 8.88993 8.32099 8.32099C8.88993 7.75204 9.66159 7.43241 10.4662 7.43241H22.6014C23.406 7.43241 24.1777 7.75204 24.7466 8.32099C25.3156 8.88993 25.6352 9.66159 25.6352 10.4662V22.6014C25.6352 23.406 25.3156 24.1777 24.7466 24.7466C24.1777 25.3156 23.406 25.6352 22.6014 25.6352H10.4662C9.66159 25.6352 8.88993 25.3156 8.32099 24.7466C7.75204 24.1777 7.43241 23.406 7.43241 22.6014V10.4662Z" stroke="#8B8B8B" stroke-width="2.7" stroke-linecap="round" stroke-linejoin="round"/>
</svg>
