<svg width="23" height="25" viewBox="0 0 23 25" fill="none" xmlns="http://www.w3.org/2000/svg">
<path d="M22.5237 6.12526C22.5029 5.91521 22.4292 5.71387 22.3094 5.54009C22.1896 5.3663 22.0277 5.22576 21.8387 5.13161L11.8398 0.132131C11.6661 0.0452397 11.4746 0 11.2805 0C11.0863 0 10.8948 0.0452397 10.7212 0.132131L0.722202 5.13161C0.533813 5.22629 0.372379 5.36701 0.252865 5.54071C0.13335 5.71441 0.0596249 5.91547 0.038523 6.12526C0.0247744 6.25899 -1.1626 19.5826 10.7737 24.8908C10.9331 24.9628 11.1061 25 11.2811 25C11.4561 25 11.6291 24.9628 11.7885 24.8908C23.7248 19.5826 22.5374 6.26024 22.5237 6.12526ZM11.2811 22.3698V12.4996H3.16945C2.68414 10.7227 2.45519 8.88557 2.48952 7.04391L11.2811 2.64812V12.4996H19.3553C18.4066 15.9242 16.2331 19.9726 11.2811 22.3698Z" fill="black"/>
</svg>
