<svg width="27" height="24" viewBox="0 0 27 24" fill="none" xmlns="http://www.w3.org/2000/svg">
<path d="M24.7498 3.2H21.4771V5.6C21.4771 5.83113 21.4306 6.05999 21.3401 6.27352C21.2497 6.48706 21.1171 6.68108 20.9499 6.84451C20.7828 7.00794 20.5844 7.13758 20.366 7.22603C20.1476 7.31448 19.9135 7.36 19.6772 7.36C19.4408 7.36 19.2067 7.31448 18.9883 7.22603C18.77 7.13758 18.5715 7.00794 18.4044 6.84451C18.2373 6.68108 18.1047 6.48706 18.0142 6.27352C17.9238 6.05999 17.8772 5.83113 17.8772 5.6V3.2H8.34553V5.6C8.34553 6.06678 8.15589 6.51444 7.81833 6.84451C7.48077 7.17457 7.02294 7.36 6.54556 7.36C6.06818 7.36 5.61035 7.17457 5.27279 6.84451C4.93523 6.51444 4.74559 6.06678 4.74559 5.6V3.2H1.47291C1.27821 3.19783 1.08504 3.23387 0.904822 3.30597C0.724607 3.37807 0.56101 3.48478 0.423705 3.61978C0.286401 3.75478 0.178178 3.91533 0.105438 4.09194C0.0326972 4.26855 -0.00308405 4.45763 0.000210311 4.648V22.552C-0.00304028 22.739 0.0314186 22.9248 0.101619 23.0988C0.171819 23.2728 0.276385 23.4315 0.409345 23.566C0.542305 23.7005 0.701053 23.808 0.876524 23.8825C1.05199 23.9569 1.24075 23.9969 1.43201 24H24.7498C24.9411 23.9969 25.1298 23.9569 25.3053 23.8825C25.4808 23.808 25.6395 23.7005 25.7725 23.566C25.9054 23.4315 26.01 23.2728 26.0802 23.0988C26.1504 22.9248 26.1849 22.739 26.1816 22.552V4.648C26.1849 4.46099 26.1504 4.27519 26.0802 4.1012C26.01 3.92722 25.9054 3.76846 25.7725 3.63399C25.6395 3.49953 25.4808 3.39199 25.3053 3.31753C25.1298 3.24306 24.9411 3.20313 24.7498 3.2ZM6.54556 19.2H4.90922V17.6H6.54556V19.2ZM6.54556 15.2H4.90922V13.6H6.54556V15.2ZM6.54556 11.2H4.90922V9.6H6.54556V11.2ZM11.4546 19.2H9.81824V17.6H11.4546V19.2ZM11.4546 15.2H9.81824V13.6H11.4546V15.2ZM11.4546 11.2H9.81824V9.6H11.4546V11.2ZM16.3636 19.2H14.7272V17.6H16.3636V19.2ZM16.3636 15.2H14.7272V13.6H16.3636V15.2ZM16.3636 11.2H14.7272V9.6H16.3636V11.2ZM21.2726 19.2H19.6363V17.6H21.2726V19.2ZM21.2726 15.2H19.6363V13.6H21.2726V15.2ZM21.2726 11.2H19.6363V9.6H21.2726V11.2Z" fill="black"/>
<path d="M6.54556 6.4C6.76255 6.4 6.97066 6.31571 7.12409 6.16569C7.27753 6.01566 7.36373 5.81217 7.36373 5.6V0.8C7.36373 0.587827 7.27753 0.384344 7.12409 0.234315C6.97066 0.0842854 6.76255 0 6.54556 0C6.32857 0 6.12046 0.0842854 5.96703 0.234315C5.81359 0.384344 5.72739 0.587827 5.72739 0.8V5.6C5.72739 5.81217 5.81359 6.01566 5.96703 6.16569C6.12046 6.31571 6.32857 6.4 6.54556 6.4Z" fill="black"/>
<path d="M19.6363 6.4C19.8533 6.4 20.0614 6.31571 20.2148 6.16569C20.3682 6.01566 20.4544 5.81217 20.4544 5.6V0.8C20.4544 0.587827 20.3682 0.384344 20.2148 0.234315C20.0614 0.0842854 19.8533 0 19.6363 0C19.4193 0 19.2112 0.0842854 19.0577 0.234315C18.9043 0.384344 18.8181 0.587827 18.8181 0.8V5.6C18.8181 5.81217 18.9043 6.01566 19.0577 6.16569C19.2112 6.31571 19.4193 6.4 19.6363 6.4Z" fill="black"/>
</svg>
